<mxfile host="app.diagrams.net" agent="Mozilla/5.0 (Windows NT 10.0; Win64; x64) AppleWebKit/537.36 (KHTML, like Gecko) Chrome/130.0.0.0 Safari/537.36 OPR/115.0.0.0" version="26.0.8">
  <diagram name="PÃ¡gina-1" id="iTGrFSd2qr7wfeM9Ffsf">
    <mxGraphModel dx="1390" dy="761" grid="1" gridSize="10" guides="1" tooltips="1" connect="1" arrows="1" fold="1" page="1" pageScale="1" pageWidth="827" pageHeight="1169" math="0" shadow="0">
      <root>
        <mxCell id="0" />
        <mxCell id="1" parent="0" />
        <mxCell id="u35mKe4VdXgHx9B56DZ1-1" value="INICIO" style="strokeWidth=2;html=1;shape=mxgraph.flowchart.start_1;whiteSpace=wrap;" vertex="1" parent="1">
          <mxGeometry x="364" y="50" width="100" height="60" as="geometry" />
        </mxCell>
        <mxCell id="u35mKe4VdXgHx9B56DZ1-2" value="FIM" style="strokeWidth=2;html=1;shape=mxgraph.flowchart.start_1;whiteSpace=wrap;" vertex="1" parent="1">
          <mxGeometry x="369.5" y="900" width="100" height="60" as="geometry" />
        </mxCell>
        <mxCell id="u35mKe4VdXgHx9B56DZ1-3" value="num1" style="html=1;strokeWidth=2;shape=manualInput;whiteSpace=wrap;rounded=1;size=26;arcSize=11;" vertex="1" parent="1">
          <mxGeometry x="364" y="170" width="100" height="60" as="geometry" />
        </mxCell>
        <mxCell id="u35mKe4VdXgHx9B56DZ1-4" value="num3" style="html=1;strokeWidth=2;shape=manualInput;whiteSpace=wrap;rounded=1;size=26;arcSize=11;" vertex="1" parent="1">
          <mxGeometry x="364" y="260" width="100" height="60" as="geometry" />
        </mxCell>
        <mxCell id="u35mKe4VdXgHx9B56DZ1-5" value="num3" style="html=1;strokeWidth=2;shape=manualInput;whiteSpace=wrap;rounded=1;size=26;arcSize=11;" vertex="1" parent="1">
          <mxGeometry x="364" y="350" width="100" height="60" as="geometry" />
        </mxCell>
        <mxCell id="RXDAagLPkj56EJYNG_rw-2" style="edgeStyle=orthogonalEdgeStyle;rounded=0;orthogonalLoop=1;jettySize=auto;html=1;entryX=0.5;entryY=0;entryDx=0;entryDy=0;" edge="1" parent="1" source="u35mKe4VdXgHx9B56DZ1-6" target="RXDAagLPkj56EJYNG_rw-1">
          <mxGeometry relative="1" as="geometry" />
        </mxCell>
        <mxCell id="u35mKe4VdXgHx9B56DZ1-6" value="num4" style="html=1;strokeWidth=2;shape=manualInput;whiteSpace=wrap;rounded=1;size=26;arcSize=11;" vertex="1" parent="1">
          <mxGeometry x="364" y="450" width="100" height="60" as="geometry" />
        </mxCell>
        <mxCell id="QKtd_yZXsqyBBsELBZRG-2" style="edgeStyle=orthogonalEdgeStyle;rounded=0;orthogonalLoop=1;jettySize=auto;html=1;entryX=0.26;entryY=0.333;entryDx=0;entryDy=0;entryPerimeter=0;" edge="1" parent="1" source="u35mKe4VdXgHx9B56DZ1-1" target="u35mKe4VdXgHx9B56DZ1-3">
          <mxGeometry relative="1" as="geometry" />
        </mxCell>
        <mxCell id="QKtd_yZXsqyBBsELBZRG-3" style="edgeStyle=orthogonalEdgeStyle;rounded=0;orthogonalLoop=1;jettySize=auto;html=1;entryX=0.49;entryY=0.167;entryDx=0;entryDy=0;entryPerimeter=0;" edge="1" parent="1" source="u35mKe4VdXgHx9B56DZ1-3" target="u35mKe4VdXgHx9B56DZ1-4">
          <mxGeometry relative="1" as="geometry" />
        </mxCell>
        <mxCell id="QKtd_yZXsqyBBsELBZRG-4" style="edgeStyle=orthogonalEdgeStyle;rounded=0;orthogonalLoop=1;jettySize=auto;html=1;entryX=0.52;entryY=0.283;entryDx=0;entryDy=0;entryPerimeter=0;" edge="1" parent="1" source="u35mKe4VdXgHx9B56DZ1-4" target="u35mKe4VdXgHx9B56DZ1-5">
          <mxGeometry relative="1" as="geometry" />
        </mxCell>
        <mxCell id="QKtd_yZXsqyBBsELBZRG-5" style="edgeStyle=orthogonalEdgeStyle;rounded=0;orthogonalLoop=1;jettySize=auto;html=1;entryX=0.5;entryY=0.183;entryDx=0;entryDy=0;entryPerimeter=0;" edge="1" parent="1" source="u35mKe4VdXgHx9B56DZ1-5" target="u35mKe4VdXgHx9B56DZ1-6">
          <mxGeometry relative="1" as="geometry" />
        </mxCell>
        <mxCell id="RXDAagLPkj56EJYNG_rw-1" value="num1 = num1 * num1&lt;div&gt;num2 = num2 * num2&lt;/div&gt;&lt;div&gt;num3 = num3 * num3&lt;/div&gt;&lt;div&gt;num4 = num4 * num4&lt;/div&gt;" style="rounded=1;whiteSpace=wrap;html=1;absoluteArcSize=1;arcSize=14;strokeWidth=2;" vertex="1" parent="1">
          <mxGeometry x="327" y="560" width="174" height="80" as="geometry" />
        </mxCell>
        <mxCell id="RXDAagLPkj56EJYNG_rw-6" style="edgeStyle=orthogonalEdgeStyle;rounded=0;orthogonalLoop=1;jettySize=auto;html=1;" edge="1" parent="1" source="RXDAagLPkj56EJYNG_rw-3" target="RXDAagLPkj56EJYNG_rw-5">
          <mxGeometry relative="1" as="geometry" />
        </mxCell>
        <mxCell id="RXDAagLPkj56EJYNG_rw-3" value="resultado = num1 + num2 + num3 + num4" style="rounded=1;whiteSpace=wrap;html=1;absoluteArcSize=1;arcSize=14;strokeWidth=2;" vertex="1" parent="1">
          <mxGeometry x="300" y="690" width="239" height="40" as="geometry" />
        </mxCell>
        <mxCell id="RXDAagLPkj56EJYNG_rw-4" style="edgeStyle=orthogonalEdgeStyle;rounded=0;orthogonalLoop=1;jettySize=auto;html=1;entryX=0.477;entryY=0.05;entryDx=0;entryDy=0;entryPerimeter=0;" edge="1" parent="1" source="RXDAagLPkj56EJYNG_rw-1" target="RXDAagLPkj56EJYNG_rw-3">
          <mxGeometry relative="1" as="geometry" />
        </mxCell>
        <mxCell id="RXDAagLPkj56EJYNG_rw-5" value="resultado" style="strokeWidth=2;html=1;shape=mxgraph.flowchart.display;whiteSpace=wrap;" vertex="1" parent="1">
          <mxGeometry x="369.5" y="780" width="100" height="60" as="geometry" />
        </mxCell>
        <mxCell id="RXDAagLPkj56EJYNG_rw-7" style="edgeStyle=orthogonalEdgeStyle;rounded=0;orthogonalLoop=1;jettySize=auto;html=1;entryX=0.5;entryY=0;entryDx=0;entryDy=0;entryPerimeter=0;" edge="1" parent="1" source="RXDAagLPkj56EJYNG_rw-5" target="u35mKe4VdXgHx9B56DZ1-2">
          <mxGeometry relative="1" as="geometry" />
        </mxCell>
      </root>
    </mxGraphModel>
  </diagram>
</mxfile>
